<svg xmlns="http://www.w3.org/2000/svg" xml:space="preserve" style="enable-background:new 0 0 500 500" viewBox="0 0 500 500"><path d="M0 382.398h500v.25H0zM428.222 398.494h21.679v.25h-21.679zM310.558 393.306h34.109v.25h-34.109zM396.586 389.208h44.525v.25h-44.525zM161.877 394.25h11.138v.25h-11.138zM114.585 394.25h38.389v.25h-38.389zM66.307 390.028h27.695v.25H66.307zM237.014 337.8H43.915c-3.147 0-5.708-2.561-5.708-5.708V60.66c0-3.147 2.561-5.708 5.708-5.708h193.099c3.146 0 5.707 2.561 5.707 5.708v271.432c0 3.147-2.561 5.708-5.707 5.708zM43.915 55.203c-3.01 0-5.458 2.448-5.458 5.458v271.432c0 3.01 2.448 5.458 5.458 5.458h193.099c3.009 0 5.457-2.448 5.457-5.458V60.66c0-3.009-2.448-5.458-5.457-5.458H43.915zM453.31 337.8H260.212c-3.147 0-5.707-2.561-5.707-5.708V60.66c0-3.147 2.561-5.708 5.707-5.708H453.31c3.148 0 5.708 2.561 5.708 5.708v271.432c.001 3.147-2.56 5.708-5.708 5.708zM260.212 55.203c-3.009 0-5.457 2.448-5.457 5.458v271.432c0 3.01 2.448 5.458 5.457 5.458H453.31c3.01 0 5.458-2.448 5.458-5.458V60.66c0-3.009-2.448-5.458-5.458-5.458H260.212z" style="fill:#ebebeb"/><path d="m216.072 200.878.45-13.141-8.068-2.636c-.332-4.49-1.083-8.924-2.151-13.196l6.838-5.042-4.645-12.343-8.458.681c-2.016-3.991-4.385-7.788-7.04-11.35l4.381-7.313-9.008-9.611-7.562 3.872c-3.406-2.895-6.996-5.516-10.839-7.834l1.225-8.394-11.998-5.445-5.497 6.442c-4.188-1.359-8.527-2.375-13.016-3.049l-2.044-8.228-13.176-.451-2.602 8.069c-4.525.365-8.924 1.082-13.195 2.151l-5.078-6.805-12.342 4.611.682 8.459c-3.992 2.05-7.788 4.418-11.35 7.074l-7.278-4.38-9.646 8.972 3.871 7.596c-2.893 3.372-5.516 6.998-7.801 10.842l-8.392-1.259-5.479 11.996 6.476 5.498c-1.358 4.189-2.411 8.562-3.049 13.018l-8.264 2.076-.45 13.141 8.102 2.639c.331 4.523 1.083 8.924 2.152 13.194l-6.837 5.042 4.645 12.344 8.458-.683c2.016 3.991 4.385 7.788 7.04 11.35l-4.382 7.313 9.009 9.612 7.561-3.873a80.4313 80.4313 0 0 0 10.84 7.836l-1.26 8.391 11.998 5.445 5.532-6.441c4.188 1.359 8.527 2.375 13.017 3.049l2.044 8.228 13.176.451 2.603-8.069c4.524-.365 8.923-1.082 13.194-2.151l5.043 6.803 12.342-4.611-.648-8.456c3.993-2.05 7.754-4.421 11.35-7.076l7.279 4.382 9.645-8.973-3.87-7.596c2.893-3.372 5.516-6.998 7.801-10.842l8.392 1.26 5.479-11.997-6.477-5.498c1.359-4.188 2.41-8.526 3.049-13.016l8.228-2.078zm-88.796 42.571c-28.778-.986-51.313-25.12-50.327-53.899.987-28.813 25.121-51.346 53.899-50.36 28.778.986 51.313 25.118 50.326 53.931-.986 28.779-25.12 51.314-53.898 50.328zM440.957 157.423l3.314-3.095-1.324-2.61c1.014-1.176 1.912-2.44 2.693-3.742l2.897.438 1.877-4.142-2.229-1.896c.482-1.465.83-2.968 1.051-4.484l2.852-.715.147-4.54-2.788-.9c-.125-1.536-.361-3.051-.733-4.553l2.346-1.748-1.598-4.253-2.911.23c-.69-1.353-1.5-2.659-2.43-3.917l1.508-2.505-3.103-3.323-2.603 1.332c-1.193-1.015-2.44-1.912-3.742-2.693l.421-2.898-4.134-1.885-1.896 2.229a27.7068 27.7068 0 0 0-4.493-1.043l-.707-2.843-4.54-.164-.908 2.796c-1.528.117-3.051.361-4.546.742l-1.739-2.353-4.261 1.589.238 2.92c-1.353.69-2.676 1.5-3.918 2.431l-2.521-1.509-3.314 3.095 1.332 2.619c-1.022 1.184-1.912 2.44-2.693 3.742l-2.897-.438-1.878 4.143 2.229 1.896c-.482 1.465-.83 2.968-1.051 4.484l-2.852.715-.147 4.541 2.788.899c.117 1.528.361 3.052.732 4.554l-2.353 1.739 1.598 4.253 2.92-.222c.69 1.353 1.5 2.658 2.431 3.918l-1.508 2.505 3.103 3.323 2.602-1.333c1.192 1.014 2.44 1.912 3.742 2.693l-.429 2.889 4.134 1.885 1.904-2.22c1.474.474 2.969.813 4.493 1.042l.707 2.843 4.54.164.908-2.796c1.528-.117 3.051-.361 4.546-.742l1.739 2.354 4.262-1.589-.239-2.92c1.352-.69 2.667-1.491 3.918-2.43l2.513 1.498zm-23.616-19.131c-2.438-2.611-2.298-6.706.313-9.144 2.614-2.441 6.709-2.301 9.147.311 2.438 2.611 2.298 6.706-.316 9.147-2.611 2.438-6.706 2.297-9.144-.314zM319.989 292.336l-10.341-7.142c-.003-.008-.003-.017-.006-.025-1.023-3.757-2.434-7.373-4.159-10.772l2.649-10.398-15-16.065-10.559 1.933c-3.27-1.951-6.779-3.605-10.454-4.882-.008-.002-.018-.004-.026-.008l-6.42-10.81-21.965-.753-7.142 10.341c-.013.003-.027.007-.041.01-3.753 1.023-7.366 2.431-10.76 4.154l-10.393-2.649-16.064 15.001 1.929 10.538c-.002.004-.004.005-.006.009-1.992 3.307-3.608 6.817-4.885 10.494l-10.808 6.417-.753 21.966 10.35 7.148c1.022 3.783 2.389 7.391 4.147 10.818l.002.004-2.642 10.366 15 16.063 10.493-1.92c3.312 1.958 6.826 3.614 10.546 4.893.003.002.005.002.009.002l6.409 10.794 21.965.753 7.137-10.334c3.797-1.021 7.415-2.431 10.851-4.158.001 0 .002 0 .003-.002l10.346 2.636 16.064-14.999-1.929-10.54c1.992-3.307 3.608-6.819 4.885-10.496 0 0 0-.002.001-.002l10.812-6.421.755-21.964zm-68.452 33.39c-13.654-.468-24.32-11.931-23.854-25.546.468-13.654 11.892-24.321 25.546-23.854 13.654.468 24.321 11.892 23.854 25.546-.466 13.615-11.892 24.322-25.546 23.854zM343.548 229.954c-.024 0-.048 0-.072-.001l-17.317-.593a2.1103 2.1103 0 0 1-1.743-1.032l-4.663-7.852c-2.479-.899-4.922-2.033-7.283-3.378l-7.507 1.373c-.708.134-1.432-.109-1.923-.636l-11.826-12.663a2.1144 2.1144 0 0 1-.503-1.963l1.888-7.41c-1.147-2.347-2.107-4.854-2.859-7.47l-7.531-5.201a2.1123 2.1123 0 0 1-.911-1.809l.593-17.317c.024-.719.414-1.376 1.032-1.743l7.866-4.671c.933-2.554 2.064-4.985 3.37-7.248l-1.379-7.533c-.129-.707.11-1.433.636-1.923l12.665-11.827c.526-.492 1.266-.68 1.963-.503l7.435 1.895c2.405-1.17 4.904-2.134 7.449-2.871l5.197-7.525c.408-.592 1.079-.958 1.81-.91l17.317.594a2.108 2.108 0 0 1 1.743 1.032l4.672 7.866c2.482.909 4.906 2.04 7.227 3.372l7.554-1.384c.709-.129 1.433.11 1.924.636l11.826 12.666c.491.526.68 1.266.503 1.963l-1.896 7.438c1.171 2.406 2.134 4.904 2.872 7.446l7.525 5.196c.592.408.935 1.091.911 1.81l-.593 17.318a2.1103 2.1103 0 0 1-1.032 1.743l-7.869 4.673c-.933 2.553-2.062 4.983-3.366 7.243l1.379 7.536c.129.707-.11 1.433-.636 1.923l-12.665 11.824c-.525.492-1.264.682-1.962.503l-7.401-1.886c-2.439 1.178-4.952 2.141-7.488 2.87l-5.192 7.519c-.397.57-1.047.91-1.74.91zm-16.091-4.775 15.009.515 4.971-7.198c.284-.411.706-.709 1.189-.839 2.765-.743 5.508-1.795 8.155-3.126a.0914.0914 0 0 0 .014-.007c.441-.217.955-.284 1.458-.153l7.038 1.793 10.977-10.249-1.313-7.174c-.093-.506.003-1.028.268-1.47 1.448-2.403 2.676-5.039 3.65-7.834.16-.496.499-.913.941-1.173l7.523-4.468.514-15.01-7.203-4.975a2.115 2.115 0 0 1-.804-1.069 2.083 2.083 0 0 1-.048-.169c-.753-2.758-1.801-5.468-3.114-8.055a2.12 2.12 0 0 1-.164-1.478l1.804-7.078-10.25-10.979-7.189 1.316a2.1062 2.1062 0 0 1-1.462-.264c-2.5-1.492-5.14-2.725-7.846-3.666-.153-.053-.308-.124-.441-.205-.292-.18-.535-.427-.709-.721l-4.472-7.529-15.009-.515-4.975 7.204c-.296.429-.739.731-1.243.852a42.826 42.826 0 0 0-8.054 3.112c-.457.232-.983.29-1.477.163l-7.075-1.804-10.977 10.251 1.313 7.173c.083.45.016.915-.188 1.324-.029.058-.061.114-.095.17-1.451 2.412-2.681 5.056-3.654 7.859-.164.47-.488.868-.916 1.122l-7.528 4.471-.514 15.009 7.21 4.98c.411.283.708.704.839 1.186.777 2.876 1.823 5.607 3.11 8.117a2.1122 2.1122 0 0 1 .169 1.487l-1.798 7.054 10.25 10.976 7.138-1.306c.501-.091 1.017.002 1.454.26 2.545 1.505 5.198 2.737 7.888 3.665.486.154.907.483 1.174.934l4.462 7.521zm24.784-94.812h.01-.01zm-15.513 75.847c-.37 0-.739-.007-1.111-.02-17.446-.598-31.153-15.277-30.555-32.723.598-17.445 15.301-31.148 32.723-30.556 17.446.598 31.153 15.277 30.555 32.724-.289 8.44-3.85 16.269-10.026 22.042-5.911 5.526-13.54 8.533-21.586 8.533zm-.038-59.094c-14.698 0-26.9 11.695-27.407 26.496-.518 15.118 11.36 27.839 26.479 28.357 7.326.245 14.311-2.368 19.669-7.377 5.353-5.004 8.439-11.788 8.689-19.102.518-15.118-11.361-27.84-26.479-28.358-.318-.01-.636-.016-.951-.016z" style="fill:#ebebeb"/><path d="m383.439 105.323-7.174-1.926-1.926-7.173 2.809-2.809 2.963 6.136 6.136 2.964z" style="fill:#e0e0e0"/><path d="M383.884 100.521c1.307-1.307 1.307-3.437 0-4.744s-3.427-1.297-4.734.01l3.568-5.353 4.786 2.419 1.049 5.029-4.669 2.639z" style="fill:#e0e0e0"/><path d="m376.582 93.981 5.257-5.257 7.173 1.926 1.927 7.174-5.257 5.257-7.174-1.927-1.926-7.173zm9.545 4.298c1.307-1.307 1.307-3.437 0-4.744s-3.427-1.297-4.734.01-1.307 3.418 0 4.724c1.307 1.307 3.427 1.317 4.734.01z" style="fill:#f0f0f0"/><path d="m90.221 296.708 3.849-1.034 1.034-3.849-1.507-1.507-1.59 3.293-3.293 1.59z" style="fill:#e0e0e0"/><path d="M89.982 294.131c-.701-.701-.701-1.844 0-2.546.701-.701 1.839-.696 2.54.005l-1.915-2.873-2.568 1.298-.563 2.698 2.506 1.418z" style="fill:#e0e0e0"/><path d="m93.901 290.622-2.821-2.821-3.849 1.034-1.034 3.85 2.821 2.821 3.849-1.034 1.034-3.85zm-5.123 2.306c-.701-.701-.701-1.844 0-2.546.701-.701 1.839-.696 2.54.005s.701 1.834 0 2.535c-.7.702-1.838.707-2.54.006zM76.363 85.662l3.195 3.195c.832.832 2.193.832 3.025 0 .832-.832.832-2.193 0-3.025l-3.195-3.195c-.832-.832-2.193-.832-3.025 0-.832.832-.832 2.194 0 3.025z" style="fill:#f0f0f0"/><path d="M74.112 77.705c2.462-.884 5.131.272 5.961 2.583.83 2.311-.493 4.901-2.955 5.786-2.462.884-5.131-.272-5.961-2.583-.83-2.311.493-4.901 2.955-5.786z" style="fill:#e0e0e0"/><path d="M74.93 76.839h1.37v10.102h-1.37z" style="fill:#f0f0f0" transform="scale(-1) rotate(70.244 116.4268 -107.5084)"/><ellipse cx="250" cy="416.238" rx="193.889" ry="11.323" style="fill:#f5f5f5"/><path d="M86.716 120.646c-1.001-4.403-.554-8.11 1.342-11.123 1.896-3.011 5.034-5.014 9.413-6.01 4.49-1.021 8.223-.602 11.2 1.257 2.977 1.858 4.959 4.958 5.946 9.301.717 3.153.774 5.859.172 8.118-.603 2.26-1.779 4.179-3.529 5.757-1.751 1.579-4.123 2.707-7.116 3.388-3.042.692-5.67.78-7.884.265-2.214-.516-4.179-1.682-5.895-3.499-1.716-1.816-2.933-4.3-3.649-7.454zm8.344-1.857c.619 2.724 1.57 4.565 2.853 5.524 1.282.961 2.794 1.241 4.537.845 1.791-.406 3.045-1.304 3.761-2.692s.732-3.592.045-6.609c-.577-2.539-1.511-4.278-2.802-5.218-1.291-.938-2.813-1.208-4.567-.809-1.681.382-2.895 1.284-3.643 2.705-.748 1.422-.809 3.506-.184 6.254zM118.593 117.347c-.678-2.98-.23-5.666 1.343-8.056 1.572-2.39 4.07-3.974 7.493-4.751 3.913-.89 7.127-.428 9.643 1.388 2.022 1.463 3.338 3.531 3.946 6.205.683 3.007.247 5.695-1.311 8.068-1.557 2.373-4.096 3.96-7.617 4.76-3.14.714-5.861.495-8.162-.66-2.829-1.433-4.607-3.751-5.335-6.954zm7.504-1.724c.396 1.741 1.041 2.949 1.937 3.624.895.674 1.876.889 2.943.646 1.079-.246 1.872-.858 2.378-1.838.506-.979.553-2.377.141-4.191-.385-1.693-1.021-2.875-1.909-3.544-.888-.669-1.847-.887-2.877-.652-1.092.248-1.898.874-2.418 1.876-.521 1.001-.586 2.361-.195 4.079zM148.585 128.566l-6.133-26.977 7.011-1.595.657 2.889c.693-1.434 1.395-2.457 2.107-3.071.961-.824 2.104-1.388 3.429-1.688 2.613-.595 4.861-.054 6.745 1.62 1.884 1.675 3.161 3.984 3.83 6.929.739 3.251.524 5.909-.645 7.975-1.169 2.065-2.943 3.369-5.323 3.91-1.153.262-2.249.305-3.29.128-1.04-.177-2.022-.565-2.946-1.168l2.121 9.329-7.563 1.719zm3.609-18.857c.351 1.546.937 2.619 1.757 3.22.82.601 1.727.787 2.721.562.871-.198 1.52-.723 1.945-1.574.425-.852.443-2.136.053-3.854-.36-1.583-.931-2.675-1.713-3.277-.782-.604-1.615-.804-2.498-.604-.956.218-1.669.774-2.137 1.666-.468.894-.511 2.18-.128 3.861zM169.435 110.299l7.275-2.39c.507.813 1.081 1.348 1.719 1.604.638.254 1.418.277 2.338.068 1.005-.229 1.736-.62 2.191-1.175.357-.416.481-.862.372-1.341-.122-.539-.499-.892-1.13-1.057-.452-.116-1.584-.129-3.395-.04-2.704.139-4.605.129-5.706-.026-1.1-.157-2.101-.615-3.003-1.377-.902-.761-1.487-1.731-1.754-2.907-.292-1.287-.17-2.48.366-3.582.537-1.102 1.409-2.032 2.617-2.79s2.916-1.388 5.124-1.89c2.331-.53 4.092-.742 5.283-.64 1.191.104 2.243.445 3.155 1.024.913.58 1.759 1.451 2.539 2.616l-6.944 2.314c-.326-.585-.737-.975-1.233-1.171-.679-.26-1.435-.295-2.269-.104-.847.192-1.429.482-1.747.87-.318.388-.429.797-.331 1.226.108.478.436.783.982.916.546.135 1.664.111 3.352-.066 2.554-.283 4.496-.313 5.825-.086 1.329.226 2.421.732 3.277 1.517.855.785 1.41 1.735 1.664 2.851.256 1.128.165 2.302-.273 3.522-.439 1.221-1.319 2.313-2.642 3.278-1.322.963-3.247 1.733-5.774 2.309-3.57.812-6.229.879-7.975.206-1.746-.674-3.047-1.9-3.903-3.679zM193.849 85.566l8.208-.046.036 6.303-1.514 12.671-5.076.028-1.619-12.653-.035-6.303zm.401 20.888 7.661-.043.039 6.774-7.661.043-.039-6.774zM128.68 171.581c-.06 0-.121-.011-.181-.034-4.501-1.743-7.194-3.446-8.592-5.492-1.016.204-2.153.069-3.232-.444-1.048-.498-2.057-1.369-2.781-2.622-.675.521-1.509.663-2.425.375-1.016-.319-2.073-1.175-2.952-2.411-.559.404-1.132.465-1.552.43-2.973-.242-7.001-6.16-7.29-12.467-.013-.275.201-.51.477-.521.27-.023.51.2.522.477.274 5.985 4.109 11.331 6.373 11.515.367.036.674-.079.932-.279-1.358-2.383-2.063-5.781-1.023-9.412.86-3.005 1.62-4.18 2.532-3.962 1.723.429 1.497 6.972.584 11.288-.207.979-.505 1.681-.845 2.183.789 1.165 1.724 1.949 2.543 2.207.732.23 1.274.035 1.674-.346-.786-1.936-.949-4.574.118-7.939 1.404-4.429 1.969-4.549 2.307-4.62.238-.051.476.028.645.22.924 1.043-.18 7.922-1.344 11.324-.151.442-.339.829-.557 1.157.621 1.217 1.536 2.046 2.493 2.501.768.365 1.556.498 2.273.431-.09-.189-.171-.381-.244-.576-.793-2.147-.405-4.626 1.185-7.578 1.055-1.958 1.915-2.871 2.707-2.872h.001c.235 0 .675.087.986.662.872 1.609.241 6.919-1.483 9.554-.406.621-.967 1.092-1.618 1.398 1.34 1.762 3.884 3.314 7.949 4.89.257.1.385.389.286.646a.5049.5049 0 0 1-.468.317zm-5.654-16.47c-.003 0-.565.004-1.827 2.347-1.446 2.685-1.815 4.895-1.127 6.757.084.228.184.45.3.67.534-.229.991-.601 1.321-1.104 1.4-2.141 2.071-6.538 1.55-8.257-.107-.352-.216-.413-.217-.413zm-7.172-4.213c-.258.485-.692 1.484-1.34 3.529-.858 2.708-.863 4.884-.385 6.548.033-.084.064-.168.093-.251 1.176-3.438 1.749-8.174 1.632-9.826zm-6.586-3.15c-.169.155-.655.785-1.352 3.221-.919 3.213-.353 6.144.727 8.246.207-.434.351-.934.45-1.402 1.037-4.911.735-9.354.175-10.065zM166.698 223.997c-1.525 0-3.129-.348-4.561-1.189a.5008.5008 0 0 1-.178-.685c.139-.239.446-.316.684-.179 3.567 2.095 8.178.633 9.127-.893.11-.179.211-.406.147-.671-1.411.149-3.147-.225-5.131-1.466-2.545-1.591-2.741-2.064-2.725-2.442.01-.224.137-.419.341-.523.996-.505 5.505 1.574 7.385 2.81.246.162.454.337.622.522.831-.202 1.475-.632 1.903-1.145.294-.353.49-.737.587-1.122-.066.01-.133.018-.2.024-1.599.161-3.203-.525-4.911-2.104-1.174-1.085-1.63-1.833-1.478-2.426.048-.189.206-.525.719-.653 1.383-.344 4.797 1.111 6.193 2.642.314.344.528.749.642 1.184 1.305-.613 2.685-1.988 4.319-4.271a.4997.4997 0 0 1 .698-.115c.225.16.276.473.116.697-1.889 2.64-3.464 4.136-5.046 4.746-.062.704-.353 1.42-.869 2.04-.507.607-1.246 1.129-2.181 1.411.1.45.01.926-.28 1.392-.845 1.357-3.263 2.416-5.923 2.416zm-.888-6.936c.336.248.818.576 1.506 1.007 1.357.849 2.566 1.24 3.6 1.322-1.657-1.027-3.824-1.936-5.106-2.329zm3.49-4.248c.056.156.278.567 1.166 1.388 1.486 1.374 2.838 1.985 4.131 1.844.106-.011.213-.026.32-.048a1.8414 1.8414 0 0 0-.434-.825c-1.407-1.543-4.5-2.52-5.183-2.359z" style="fill:#263238"/><path d="m179.942 222.625-15.582 2.83-14.147-77.212-30.064 5.461-48.989 86.999 5.26 28.708 62.837-11.414 4.302 23.481 30.064-5.461-4.302-23.48 15.582-2.831-4.961-27.081zm-78.848 14.323 25.959-45.567 7.244 39.536-33.203 6.031zM305.43 142.992c-.582-5.334-1.647-10.073-3.197-14.218-1.549-4.145-3.88-8.208-6.99-12.189-3.11-3.981-7.345-7.437-12.704-10.366-5.36-2.928-12.434-4.967-21.223-6.112-18.292-2.383-32.551.865-42.782 9.74-10.232 8.877-16.963 25.881-20.198 51.011-1.316 10.221-1.642 19.669-.977 28.345.663 8.675 2.255 15.653 4.778 20.933 3.451 7.419 8.335 13.344 14.649 17.772 6.313 4.429 14.962 7.36 25.95 8.791 19.597 2.553 34.119-1.208 43.569-11.287 9.448-10.077 15.717-27.112 18.805-51.101 1.379-10.703 1.485-21.142.32-31.319z" style="fill:#407bff"/><path d="M251.766 226.433c-2.405-.082-4.964-.299-7.607-.644-9.154-1.192-16.237-3.509-21.053-6.888-4.752-3.332-8.347-7.716-10.992-13.406l-.049-.103c-1.923-4.023-3.179-9.753-3.735-17.028-.605-7.888-.296-16.669.918-26.102 3.569-27.721 10.941-39.287 16.497-44.107 6.478-5.62 15.221-8.16 26.73-7.766 2.358.081 4.855.292 7.421.626 7.386.962 13.23 2.596 17.37 4.857 4.009 2.191 7.142 4.71 9.31 7.485 2.404 3.076 4.205 6.195 5.354 9.269 1.223 3.27 2.086 7.159 2.566 11.558 1.065 9.309.964 18.953-.293 28.722-2.773 21.539-8.129 36.673-15.92 44.981-5.779 6.165-14.452 8.961-26.514 8.547-.002-.001-.003-.001-.003-.001z" style="fill:#263238"/><path d="m271.336 143.287.13-3.788-2.325-.76c-.096-1.294-.312-2.572-.62-3.804l1.971-1.453-1.339-3.558-2.438.196c-.581-1.15-1.264-2.245-2.029-3.272l1.263-2.108-2.597-2.77-2.18 1.116c-.982-.834-2.017-1.59-3.125-2.258l.353-2.42-3.458-1.57-1.584 1.857c-1.207-.392-2.458-.685-3.752-.879l-.589-2.372-3.798-.13-.75 2.326c-1.305.105-2.572.312-3.803.62l-1.464-1.961-3.558 1.329.197 2.438a23.1807 23.1807 0 0 0-3.272 2.039l-2.098-1.262-2.78 2.586 1.116 2.189c-.834.972-1.59 2.017-2.249 3.125l-2.419-.363-1.579 3.458 1.867 1.585c-.392 1.208-.695 2.468-.879 3.752l-2.382.598-.13 3.788 2.335.761c.095 1.304.312 2.572.62 3.803l-1.971 1.453 1.339 3.558 2.438-.197c.581 1.15 1.264 2.245 2.029 3.272l-1.263 2.108 2.597 2.771 2.179-1.116c.972.834 2.017 1.59 3.124 2.259l-.363 2.419 3.458 1.57 1.595-1.857c1.207.392 2.458.685 3.752.879l.589 2.372 3.798.13.75-2.326c1.304-.105 2.572-.312 3.803-.62l1.454 1.961 3.558-1.329-.187-2.438c1.151-.591 2.235-1.274 3.272-2.04l2.098 1.263 2.78-2.587-1.116-2.189c.834-.972 1.59-2.017 2.248-3.125l2.419.363 1.579-3.458-1.867-1.585c.392-1.207.695-2.458.879-3.752l2.374-.597zm-25.595 12.271c-8.295-.284-14.791-7.241-14.507-15.536.285-8.305 7.241-14.8 15.536-14.516 8.295.284 14.791 7.24 14.506 15.545-.283 8.295-7.24 14.791-15.535 14.507z" style="fill:#407bff"/><path d="m287.122 212.865.275-2.553-1.535-.626c-.005-.878-.081-1.747-.227-2.594l1.4-.889-.711-2.47-1.662.013c-.335-.807-.73-1.582-1.196-2.311l.948-1.36-1.605-1.998-1.531.638c-.611-.606-1.271-1.167-1.991-1.671l.372-1.626-2.251-1.235-1.176 1.188c-.807-.344-1.641-.595-2.477-.787l-.283-1.636-2.553-.286-.626 1.535c-.878.005-1.735.093-2.594.239l-.888-1.412-2.471.723.013 1.662c-.796.336-1.57.731-2.311 1.197l-1.36-.96-1.997 1.605.638 1.531c-.595.612-1.167 1.271-1.672 1.991l-1.615-.36-1.235 2.251 1.177 1.164c-.332.82-.594 1.642-.787 2.489l-1.636.271-.275 2.553 1.534.638c-.006.866.081 1.735.228 2.583l-1.411.888.723 2.471 1.662-.002c.336.796.73 1.57 1.197 2.3l-.959 1.36 1.605 2.009 1.544-.649c.611.606 1.27 1.167 1.991 1.672l-.372 1.626 2.251 1.236 1.175-1.177c.808.332 1.642.583 2.478.775l.283 1.636 2.553.286.626-1.535c.866-.005 1.735-.092 2.594-.238l.888 1.411 2.459-.723-.001-1.662c.796-.336 1.57-.73 2.311-1.196l1.348.959 2.009-1.604-.65-1.532c.606-.611 1.167-1.271 1.683-1.99l1.614.359 1.235-2.251-1.177-1.164c.332-.819.583-1.642.775-2.478l1.646-.284zm-12.873-.991c-1.186 2.159-3.905 2.956-6.064 1.77-2.159-1.186-2.944-3.904-1.758-6.063s3.892-2.944 6.052-1.759c2.159 1.186 2.955 3.893 1.77 6.052z" style="opacity:.3;fill:#407bff"/><path d="m301.29 169.649-2.981-2.059c-.001-.002-.001-.005-.002-.007-.295-1.083-.702-2.125-1.199-3.105l.764-2.997-4.324-4.631-3.043.557a16.3378 16.3378 0 0 0-3.013-1.407c-.002-.001-.005-.001-.008-.002l-1.85-3.116-6.331-.217-2.059 2.981-.012.003c-1.082.295-2.123.701-3.102 1.197l-2.996-.764-4.63 4.324.556 3.038c-.001.001-.001.002-.002.003-.574.953-1.04 1.965-1.408 3.025l-3.115 1.85-.217 6.331 2.983 2.06c.294 1.09.689 2.13 1.195 3.118v.001l-.761 2.988 4.323 4.63 3.025-.553c.954.564 1.967 1.042 3.04 1.41.001.001.002.001.003.001l1.847 3.111 6.331.217 2.057-2.979c1.094-.294 2.137-.701 3.128-1.199 0 0 .001 0 .001-.001l2.982.76 4.63-4.323-.556-3.038c.574-.953 1.04-1.966 1.408-3.025v-.001l3.116-1.851.22-6.33zm-19.731 9.625c-3.936-.135-7.01-3.439-6.876-7.363.135-3.936 3.428-7.01 7.363-6.876 3.936.135 7.01 3.428 6.876 7.363-.134 3.924-3.428 7.011-7.363 6.876z" style="fill:#fff"/><path d="m323.043 119.124.521-1.257c.001 0 .002-.001.003-.001.374-.193.725-.425 1.046-.685l1.161.044 1.36-1.952-.444-1.074c.132-.39.228-.799.279-1.217v-.003l.998-.925-.419-2.342-1.257-.521c-.001-.001-.001-.003-.002-.004a6.1269 6.1269 0 0 0-.684-1.045l.044-1.16-1.952-1.36-1.072.443h-.001c-.395-.136-.803-.227-1.221-.279l-.925-.998-2.342.419-.522 1.258c-.377.194-.728.421-1.051.685l-1.157-.044-1.359 1.952.441 1.067c-.132.395-.228.804-.278 1.227v.001l-.997.923.419 2.342 1.256.521c.194.379.426.73.687 1.054l-.044 1.155 1.952 1.36 1.072-.444c.395.136.804.227 1.222.279l.925.999 2.341-.418zm-5.089-6.487c-.26-1.456.711-2.845 2.162-3.105 1.456-.26 2.844.706 3.105 2.162s-.707 2.844-2.162 3.105c-1.451.26-2.844-.706-3.105-2.162zM295.607 112.489l-.764-.645c1.328-1.572 3.211-3.564 6.008-5.029l.464.887c-2.982 1.561-4.892 3.822-5.708 4.787zM303.591 106.802l-.395-.92c3.783-1.62 7.735-2.252 11.739-1.88l-.093.996c-3.84-.366-7.624.248-11.251 1.804zM301.703 113.72l-.826-.563c2.054-3.017 6.113-5.644 9.871-6.389l.194.98c-3.522.7-7.321 3.155-9.239 5.972z" style="fill:#407bff"/><path d="M235.343 209.957a.5002.5002 0 0 1-.359-.152l-2.097-2.161c-1.068-.101-2.124-.297-3.146-.586l-3.268 1.441c-.155.071-.335.053-.478-.04l-5.475-3.63a.503.503 0 0 1-.224-.425l.054-3.563a17.3315 17.3315 0 0 1-1.766-2.677l-2.805-1.088a.5024.5024 0 0 1-.31-.366l-1.305-6.438a.502.502 0 0 1 .142-.459l2.161-2.096c.1-1.063.296-2.12.584-3.149l-1.439-3.264a.5043.5043 0 0 1 .04-.479l3.629-5.476c.094-.142.228-.23.425-.224l3.561.055a17.557 17.557 0 0 1 2.679-1.765l1.088-2.807a.504.504 0 0 1 .367-.31l6.438-1.306c.167-.032.34.02.458.142l2.094 2.159c1.064.1 2.122.297 3.153.585l3.263-1.439a.5028.5028 0 0 1 .478.041l5.475 3.629a.503.503 0 0 1 .224.425l-.054 3.565c.666.829 1.258 1.728 1.764 2.675l2.807 1.089c.159.062.275.199.31.366l1.305 6.438a.502.502 0 0 1-.142.459l-2.162 2.097a17.9345 17.9345 0 0 1-.585 3.143l1.441 3.269c.069.156.053.337-.04.479L250 203.591c-.094.142-.244.213-.424.224l-3.563-.054c-.83.662-1.729 1.253-2.675 1.759l-1.091 2.813c-.061.159-.2.275-.367.31l-6.438 1.306a.6607.6607 0 0 1-.099.008zm-5.637-3.93c.047 0 .095.007.141.021 1.071.314 2.184.522 3.311.616.121.01.233.063.317.15l2.036 2.099 5.902-1.197 1.06-2.732a.504.504 0 0 1 .235-.263c1.003-.523 1.95-1.145 2.815-1.851.091-.074.194-.125.323-.112l3.471.053 3.327-5.02-1.404-3.184a.503.503 0 0 1-.022-.342c.316-1.091.523-2.205.616-3.311.01-.121.063-.233.15-.318l2.099-2.036-1.196-5.901-2.727-1.058a.502.502 0 0 1-.267-.242c-.52-1-1.143-1.943-1.851-2.806a.5018.5018 0 0 1-.114-.325l.053-3.474-5.02-3.327-3.176 1.4a.5067.5067 0 0 1-.341.023 16.9614 16.9614 0 0 0-3.323-.616.5048.5048 0 0 1-.317-.149l-2.033-2.097-5.902 1.197-1.057 2.727a.5017.5017 0 0 1-.236.263c-.996.519-1.944 1.143-2.816 1.854-.091.074-.213.127-.325.114l-3.47-.054-3.327 5.02 1.402 3.179c.06.137.056.293-.01.426-.282.999-.489 2.114-.583 3.233-.01.12-.063.232-.15.317l-2.098 2.035 1.196 5.901 2.726 1.057c.122.047.22.14.273.257.518.992 1.14 1.934 1.844 2.791a.508.508 0 0 1 .115.327l-.053 3.472 5.02 3.328 3.184-1.404a.5399.5399 0 0 1 .202-.041zm4.918-3.235c-2.528 0-5.082-.716-7.343-2.214-2.966-1.966-4.99-4.97-5.699-8.457-.709-3.488-.016-7.043 1.95-10.01h.001c4.065-6.125 12.352-7.807 18.473-3.75 6.122 4.063 7.802 12.35 3.744 18.474-2.561 3.863-6.805 5.957-11.126 5.957zm-10.258-20.128c-1.818 2.743-2.459 6.031-1.803 9.258.655 3.226 2.527 6.004 5.271 7.822 5.667 3.754 13.329 2.201 17.081-3.462 3.754-5.664 2.201-13.33-3.462-17.087-5.662-3.753-13.327-2.197-17.087 3.469z" style="fill:#fff"/><path d="m425.826 231.65-15.695-2.118 10.38-77.808-30.281-4.086-73.453 67.626-3.859 28.929 63.292 8.542-3.156 23.662 30.281 4.086 3.156-23.662 15.695 2.118 3.64-27.289zm-79.418-10.718 38.758-35.328-5.315 39.841-33.443-4.513z" style="fill:#407bff"/><path d="M394.134 279.741c-.03 0-.06-.003-.09-.008-.271-.05-.452-.31-.402-.582l23.326-127.93c.049-.27.312-.44.581-.402.272.05.452.311.402.582l-23.326 127.93a.4997.4997 0 0 1-.491.41zM414.831 153.37a.8205.8205 0 0 1-.847.791c-.452-.016-.806-.395-.791-.847s.395-.806.847-.791a.818.818 0 0 1 .791.847zM411.499 170.671c-.016.452-.395.806-.847.791s-.806-.395-.791-.847.395-.806.847-.791c.452.015.806.394.791.847zM408.166 187.971c-.016.452-.395.806-.847.791s-.806-.395-.791-.847.395-.806.847-.791c.453.016.807.395.791.847zM401.613 205.982a.8205.8205 0 0 1-.847.791c-.452-.016-.806-.395-.791-.847s.395-.806.847-.791.807.394.791.847zM401.501 222.573a.8205.8205 0 0 1-.847.791c-.452-.016-.806-.395-.791-.847s.395-.806.847-.791c.453.015.807.395.791.847zM398.169 239.874c-.016.452-.395.806-.847.791s-.806-.395-.791-.847c.015-.452.395-.806.847-.791s.806.394.791.847zM394.836 257.175a.8205.8205 0 0 1-.847.791.8205.8205 0 0 1-.791-.847.8205.8205 0 0 1 .847-.791.818.818 0 0 1 .791.847zM391.504 274.475c-.016.452-.395.806-.847.791s-.806-.395-.791-.847.395-.806.847-.791.806.395.791.847z" style="fill:#263238"/><path d="M400.794 206.454c-.23 0-.438-.16-.488-.396-.058-.27.114-.535.384-.594l2.484-.533c.274-.054.536.113.594.385.058.27-.114.535-.384.594l-2.484.533a.5531.5531 0 0 1-.106.011zM409.085 197.241s-2.238 5.829-2.991 9.361c-.753 3.532-.799 11.424-.799 11.424" style="fill:#263238"/><path d="M405.295 218.526h-.003c-.276-.002-.499-.227-.497-.503.002-.324.054-7.984.81-11.526.753-3.529 2.921-9.195 3.013-9.436.099-.257.387-.385.646-.287.258.099.387.389.288.646-.022.059-2.232 5.834-2.969 9.286-.734 3.442-.787 11.245-.788 11.323a.4995.4995 0 0 1-.5.497zM222.452 304.841c1.389-22.403-1.166-63.127 40.944-57.736 45.135 5.778 32.222 58.556 32.222 58.556l-73.166-.82z" style="fill:#263238"/><circle cx="251.514" cy="273" r="18.375" style="fill:#fff"/><path d="M253.927 254.654c-8.704-1.486-18.01 4.93-18.927 11.43l34.507 3.173c-1.216-7.41-8.674-13.424-15.58-14.603z" style="fill:#263238"/><path d="M265.576 272.543c-.247 4.804-2.865 8.574-5.848 8.421s-5.201-4.172-4.955-8.976c.247-4.804 2.865-8.574 5.848-8.421 2.983.153 5.202 4.172 4.955 8.976z" style="fill:#263238"/><path d="M251.514 292.375c-10.684 0-19.376-8.691-19.376-19.375s8.692-19.375 19.376-19.375c10.684 0 19.375 8.691 19.375 19.375s-8.692 19.375-19.375 19.375zm0-36.75c-9.581 0-17.376 7.794-17.376 17.375s7.794 17.375 17.376 17.375c9.581 0 17.375-7.794 17.375-17.375s-7.795-17.375-17.375-17.375z" style="fill:#407bff"/><path d="M290.485 304.277a.5352.5352 0 0 1-.118-.014.5008.5008 0 0 1-.369-.604c.033-.135 3.219-13.694-.09-27.403-.065-.268.1-.538.369-.604.265-.06.538.1.603.369 3.368 13.95.124 27.734.09 27.872a.4979.4979 0 0 1-.485.384zM287.698 268.759a.499.499 0 0 1-.455-.292c-1.286-2.806-2.881-5.382-4.742-7.657a.499.499 0 0 1 .071-.703.4984.4984 0 0 1 .704.07c1.914 2.341 3.555 4.99 4.876 7.874.115.251.005.548-.246.662a.4983.4983 0 0 1-.208.046z" style="opacity:.3;fill:#fff"/><path d="M128.735 409.918c-.124 0-.248-.001-.372-.005-2.76-.076-4.936-2.375-4.861-5.136.075-2.76 2.349-4.895 5.135-4.86.031.001.063.001.096.001 2.889 0 9.839-3.51 24.378-26.43a5.0063 5.0063 0 0 1 3.503-2.27c1.445-.205 2.905.223 4.005 1.18 17.941 15.643 36.954 25.38 37.144 25.477 2.461 1.25 3.444 4.26 2.194 6.721-1.25 2.462-4.258 3.447-6.719 2.196-.755-.383-17.374-8.88-34.798-23.146-12.186 18.319-21.229 26.272-29.705 26.272z" style="fill:#263238"/><path d="M159.67 371.5c-.142 0-.284-.01-.428-.03-1.64-.234-2.78-1.754-2.545-3.395.711-4.977-.17-23.626-6.475-38.126-.575-1.321-.129-2.864 1.062-3.676 13.698-9.335 42.876-10.451 44.112-10.494 1.647-.036 3.044 1.238 3.102 2.894.058 1.655-1.238 3.045-2.893 3.102-.27.01-25.78.988-38.888 8.202 5.584 14.438 6.85 32.437 5.919 38.947-.214 1.497-1.497 2.576-2.966 2.576z" style="fill:#263238"/><path d="M164.71 367.616c-1.995-4.706-10.988-4.171-16.268-.138-2.822 2.155-6.641 8.641-7.043 10.991-.401 2.351 1.227 4.48 4.023 4.238 3.448-.298 8.181-5.309 8.181-5.309-3.149 3.088.914 5.267 6.977.801 3.364-2.477 6.364-5.313 4.13-10.583z" style="fill:#407bff"/><path d="M336.706 306.161a.4751.4751 0 0 1-.138-.02c-.265-.076-.419-.354-.342-.618 1.332-4.64 2.787-7.475 4.7-9.051-.293-.996-.26-2.14.153-3.259.402-1.089 1.179-2.171 2.362-3.005-.579-.626-.795-1.445-.59-2.382.227-1.041.984-2.17 2.136-3.156-.453-.521-.564-1.088-.567-1.508-.025-2.982 5.507-7.525 11.762-8.379.274-.051.526.153.563.428a.5008.5008 0 0 1-.428.563c-5.938.811-10.917 5.109-10.897 7.38.003.368.139.664.362.903 2.251-1.567 5.574-2.575 9.282-1.863 3.069.587 4.317 1.235 4.173 2.167-.272 1.753-6.809 2.115-11.19 1.594-.993-.118-1.72-.353-2.25-.646-1.089.891-1.787 1.891-1.969 2.73-.163.749.079 1.271.495 1.636 1.856-.957 4.469-1.357 7.916-.595 4.537 1.001 4.706 1.554 4.808 1.883.072.235.014.477-.161.662-.956 1.013-7.906.532-11.398-.323-.455-.111-.856-.263-1.203-.451-1.157.729-1.901 1.713-2.268 2.708-.294.798-.361 1.593-.226 2.303.18-.107.364-.205.552-.295 2.069-.982 4.571-.817 7.654.501 2.045.876 3.031 1.65 3.103 2.439.022.233-.024.68-.57 1.042-1.525 1.013-6.87.859-9.648-.62-.655-.35-1.174-.865-1.538-1.486-1.635 1.493-2.953 4.166-4.156 8.355a.503.503 0 0 1-.482.363zm5.425-9.331c.276.512.687.934 1.219 1.217 2.257 1.201 6.696 1.476 8.362.804.34-.138.391-.252.391-.253 0-.003-.055-.563-2.501-1.609-2.803-1.199-5.038-1.367-6.831-.518a5.478 5.478 0 0 0-.64.359zm3.334-6.568c.086.025.173.049.258.07 3.531.864 8.298 1.012 9.933.743-.506-.214-1.54-.556-3.635-1.018-2.773-.611-4.941-.42-6.556.205zm1.262-5.622c.451.168.961.267 1.437.323 4.983.59 9.382-.107 10.04-.728-.17-.154-.841-.582-3.329-1.058-3.283-.625-6.151.198-8.148 1.463zM206.527 408.248c.659-.211.438-.847-.297-.847h-13.539c-25.781-2.73-43.794.929-32.443 1.792 11.35.863-.799.682-9.088 3.817-8.289 3.136 61.654 3.926 68.015 0 5.866-3.621-21.783-1.834-12.648-4.762z" style="fill:#263238"/><path d="m303.469 412.238-117.802-3.905-4.889-114.222 139.111 3.111z" style="fill:#407bff"/><path d="M222.452 410.053a.499.499 0 0 1-.498-.459l-9.443-114.721a.4992.4992 0 0 1 .458-.539c.283-.016.517.182.539.457l9.443 114.721c.022.275-.182.517-.458.539a.5911.5911 0 0 1-.041.002z" style="fill:#263238"/><path d="m303.469 412.238 31.662-4.82 9.973-106.21-25.215-3.986z" style="fill:#407bff"/><path d="m303.469 412.238 31.662-4.82 9.973-106.21-25.215-3.986z" style="opacity:.2"/><path d="m195.734 386.316-2.904-67.861c-.303-7.084 5.444-12.949 12.532-12.79l88.059 1.969c7.354.164 12.911 6.718 11.871 14l-9.763 68.391c-.885 6.198-6.295 10.736-12.552 10.528l-75.391-2.499c-6.412-.213-11.577-5.329-11.852-11.738z" style="fill:#263238"/><path d="m205.247 326.488 13.624.434-.112 3.513-8.529-.271-.083 2.615 7.912.252-.107 3.355-7.912-.252-.103 3.243 8.776.279-.118 3.726-13.871-.441.523-16.453zM221.4 343.471l.523-16.452 8.473.27c1.571.05 2.768.223 3.589.519.822.296 1.475.816 1.961 1.562.486.746.712 1.642.678 2.69-.029.913-.249 1.694-.659 2.344-.41.65-.963 1.17-1.657 1.559-.442.248-1.044.446-1.806.594.599.222 1.034.438 1.304.648.182.141.444.438.785.891s.568.801.68 1.045l2.31 4.846-5.744-.183-2.557-5.114c-.324-.661-.617-1.094-.88-1.297-.359-.266-.77-.407-1.234-.422l-.449-.014-.212 6.678-5.105-.164zm5.418-9.623 2.143.068c.232.007.683-.053 1.354-.181.339-.057.619-.22.841-.49.222-.27.339-.585.35-.944.017-.531-.138-.944-.466-1.239-.328-.295-.955-.457-1.883-.487l-2.233-.071-.106 3.344zM239.277 344.04l.523-16.452 8.473.27c1.571.05 2.768.223 3.589.519.822.296 1.475.816 1.961 1.562.486.746.712 1.643.678 2.69-.029.913-.249 1.694-.659 2.344-.411.65-.963 1.17-1.657 1.559-.442.248-1.044.446-1.806.594.599.222 1.034.438 1.304.648.183.141.444.438.786.891.341.453.568.801.68 1.045l2.31 4.846-5.745-.183-2.557-5.114c-.323-.661-.617-1.094-.88-1.297-.359-.266-.77-.407-1.234-.422l-.449-.014-.212 6.677-5.105-.163zm5.418-9.623 2.143.068c.232.007.683-.053 1.354-.182.339-.057.619-.22.841-.49.222-.27.339-.585.35-.944.017-.531-.138-.944-.466-1.239-.328-.295-.956-.457-1.883-.487l-2.233-.071-.106 3.345zM256.316 336.359c.086-2.686.9-4.753 2.444-6.202 1.544-1.448 3.651-2.13 6.322-2.045 2.738.087 4.825.889 6.259 2.406 1.435 1.517 2.11 3.6 2.026 6.249-.061 1.923-.435 3.49-1.121 4.7-.687 1.21-1.652 2.138-2.897 2.784-1.245.646-2.78.939-4.606.881-1.855-.059-3.381-.403-4.578-1.033-1.197-.63-2.153-1.596-2.868-2.9-.715-1.304-1.042-2.917-.981-4.84zm5.083.184c-.053 1.661.218 2.864.812 3.609.594.745 1.422 1.135 2.485 1.169 1.092.035 1.949-.294 2.57-.985.621-.692.961-1.958 1.02-3.799.049-1.548-.227-2.69-.829-3.424-.602-.735-1.438-1.119-2.508-1.153-1.025-.033-1.86.304-2.504 1.01-.644.706-.993 1.897-1.046 3.573zM275.907 345.205l.523-16.452 8.473.27c1.571.05 2.768.223 3.589.519.822.296 1.475.816 1.961 1.562.486.746.712 1.643.678 2.69-.029.913-.249 1.694-.659 2.344-.41.65-.963 1.17-1.657 1.559-.443.248-1.045.446-1.806.594.599.222 1.034.438 1.304.648.182.141.444.438.785.891s.568.801.68 1.045l2.31 4.846-5.744-.183-2.557-5.114c-.324-.661-.617-1.094-.88-1.297-.359-.266-.77-.407-1.234-.422l-.449-.014-.212 6.677-5.105-.163zm5.418-9.623 2.143.068c.232.007.683-.053 1.354-.182.339-.057.619-.22.841-.49.222-.27.339-.585.35-.944.017-.531-.138-.944-.466-1.239-.328-.295-.955-.457-1.883-.487l-2.233-.071-.106 3.345zM283.999 373.158c-.356 0-.71-.144-.97-.427l-8.561-9.369-9.237 8.439c-.535.49-1.365.451-1.854-.083l-8.561-9.369-9.237 8.439c-.535.489-1.366.451-1.854-.083l-8.561-9.369-9.237 8.44c-.256.235-.602.358-.944.343a1.3142 1.3142 0 0 1-.91-.426l-8.561-9.369-9.237 8.439c-.535.489-1.365.45-1.854-.083-.489-.535-.451-1.366.084-1.855l10.205-9.325c.535-.491 1.365-.452 1.855.083l8.561 9.369 9.237-8.44c.256-.235.601-.357.944-.343.348.016.675.169.91.426l8.561 9.369 9.237-8.439c.534-.49 1.365-.452 1.854.083l8.561 9.369 9.237-8.439c.535-.491 1.365-.453 1.855.083l9.446 10.338c.489.535.451 1.366-.084 1.855-.252.231-.569.344-.885.344z" style="fill:#fff"/><path d="m125.75 414.667-6.258-2.985-5.583-27.167 3.03-3.337z" style="fill:#407bff"/><path d="m125.75 414.667 8.305-4.852-7.12-22.383-9.996-6.254z" style="fill:#407bff"/><path d="m125.75 414.667 8.305-4.852-7.12-22.383-9.996-6.254z" style="opacity:.2"/><path d="M261.949 419.605c-.236 0-.467-.004-.691-.01-2.76-.076-4.937-2.375-4.861-5.136.076-2.759 2.356-4.929 5.135-4.86 7.703.252 24.006-4.48 33.319-13.521a4.9903 4.9903 0 0 1 2.046-1.201c15.788-4.738 21.664 4.834 21.907 5.244l-8.607 5.09s.033.069.115.183c-.096-.132-2.331-3.039-9.452-1.24-11.687 10.668-29.627 15.451-38.911 15.451z" style="fill:#263238"/><path d="m261.395 426.252-18.213-1.148-1.437-33.576 24.477.915z" style="fill:#407bff"/><path d="m261.395 426.252 4.257-4.237 2.639-20.936-2.069-8.636z" style="fill:#407bff"/><path d="m261.395 426.252 4.257-4.237 2.639-20.936-2.069-8.636z" style="opacity:.2"/><path d="M366.91 413.537c-.632 0-1.27-.199-1.813-.611-10.395-7.9-24.445-21.926-29.837-35.457a2.9515 2.9515 0 0 1-.171-.613c-2.629-15.633-5.141-48.541-5.247-49.935-.125-1.651 1.112-3.093 2.764-3.218 1.647-.121 3.093 1.112 3.218 2.765.026.336 2.563 33.566 5.128 49.073 5.378 13.156 19.957 26.666 27.775 32.607 1.319 1.003 1.576 2.885.573 4.204-.589.777-1.484 1.185-2.39 1.185zM380.778 415.053c-2.319 0-4.949-1.052-7.814-3.125-1.342-.972-1.643-2.847-.671-4.189s2.847-1.643 4.189-.672c2.477 1.793 3.83 1.986 4.297 1.986 1.657 0 3 1.343 3 3-.001 1.657-1.344 3-3.001 3z" style="fill:#263238"/><path d="M373.804 411.842c3.21-9.535 16.37-7.651 20.902-6.235 4.532 1.416 8.615 3.198 11.07 4.803s2.494 4.285-.779 5.816c-4.036 1.888-14.161.213-14.161.213 5.241 2.295-.01 5.972-9.205 2.36-2.994-1.176-8.96-3.463-7.827-6.957z" style="fill:#407bff"/><path d="M341.862 331.036c-1.191 8.102-7.9 14.076-13.358 13.274-5.458-.802-5.685-8.038-4.494-16.14 1.191-8.102 3.349-14.001 8.807-13.199 5.458.803 10.236 7.964 9.045 16.065z" style="fill:#263238"/><circle cx="209.875" cy="297.875" r=".819" style="fill:#263238"/><path d="M218.208 303.778c0 .452-.367.819-.819.819s-.82-.367-.82-.819c0-.453.367-.819.82-.819s.819.366.819.819zM219.125 400.683c0 .453-.367.819-.819.819-.453 0-.82-.367-.82-.819 0-.453.367-.819.82-.819.452-.001.819.366.819.819zM226.639 406.586c0 .453-.367.819-.82.819a.8194.8194 0 0 1-.819-.819c0-.453.367-.819.819-.819.453-.001.82.366.82.819zM82.51 416.419c-2.38 0-5.598-1.442-7.333-3.949a.4992.4992 0 0 1 .126-.695c.227-.158.538-.101.696.127 1.866 2.694 5.979 4.131 7.805 3.28.192-.09.348-.203.467-.339-1.632-.754-3.124-2.23-3.526-4.482-.227-1.267-.407-2.98.639-3.217 1.434-.322 3.31 3.146 4.032 5.775.134.486.176.937.13 1.343.632.173 1.254.218 1.787.141.433-.063 1.048-.241 1.375-.745-1.215-.821-2.032-2.269-2.305-4.189-.388-2.734-.097-3.211.206-3.444.197-.151.447-.18.688-.078 1.069.455 2.365 4.334 2.613 6.529.027.242.027.474.003.693.409.163.86.252 1.349.262.867.05 1.724-.226 2.41-.629a3.4608 3.4608 0 0 1-.402-.295c-1.038-.887-1.456-2.304-1.28-4.331.136-1.567.493-2.424 1.123-2.693.221-.098.671-.189 1.208.239 1.08.863 2.088 3.598 1.726 5.557-.075.405-.25.794-.502 1.151 1.835.316 4.417-.199 6.644-.749.267-.065.539.097.605.365a.499.499 0 0 1-.365.605c-2.71.67-5.627 1.215-7.688.617-.916.729-2.206 1.171-3.498 1.162-.589-.012-1.138-.117-1.639-.308-.394.671-1.127 1.125-2.124 1.271-.664.099-1.446.035-2.238-.191-.225.375-.565.676-1.013.886-.48.222-1.068.33-1.719.331zm-.864-8.277c-.058.153-.163.659.085 2.044.329 1.84 1.52 3.063 2.839 3.708-.006-.213-.045-.449-.116-.708-.786-2.859-2.279-4.829-2.808-5.044zm5.571-.872c-.006.376.028 1.008.177 2.059.203 1.428.729 2.524 1.519 3.223-.234-2.009-1.125-4.334-1.696-5.282zm6.291-.869h-.002c-.002.001-.375.19-.521 1.86-.146 1.683.16 2.823.934 3.484.176.15.376.276.599.379.283-.313.476-.663.543-1.028.268-1.449-.422-3.571-1.196-4.43-.2-.223-.329-.265-.357-.265zM228.873 423.978l2.71-4.7-2.71-4.7h-2.901l1.639 4.7-1.639 4.7z" style="fill:#263238"/><path d="M226.163 421.728c-1.35 0-2.45-1.1-2.45-2.45s1.1-2.44 2.45-2.44l-4.608-.922-1.222 3.721 2.056 3.139 3.774-1.048z" style="fill:#263238"/><path d="M226.557 414.578h-5.43l-2.71 4.7 2.71 4.7h5.43l2.71-4.7-2.71-4.7zm-2.71 7.15c-1.35 0-2.45-1.1-2.45-2.45s1.1-2.44 2.45-2.44 2.44 1.09 2.44 2.44c0 1.35-1.09 2.45-2.44 2.45zM417.889 414.265l-2.012-3.491 2.012-3.49h2.155l-1.217 3.491 1.217 3.49z" style="fill:#407bff"/><path d="M419.902 412.594c1.003 0 1.82-.817 1.82-1.82 0-1.002-.817-1.812-1.82-1.812l3.422-.685.908 2.764-1.527 2.331-2.803-.778z" style="fill:#407bff"/><path d="M419.61 407.284h4.033l2.013 3.49-2.013 3.491h-4.033l-2.013-3.491 2.013-3.49zm2.013 5.31c1.003 0 1.82-.817 1.82-1.82 0-1.002-.817-1.812-1.82-1.812-1.003 0-1.812.81-1.812 1.812-.001 1.003.809 1.82 1.812 1.82zM342.948 418.898h4.518c1.176 0 2.139-.962 2.139-2.139 0-1.176-.963-2.139-2.139-2.139h-4.518c-1.177 0-2.139.963-2.139 2.139 0 1.177.962 2.139 2.139 2.139z" style="fill:#263238"/><path d="M335.73 414.863c1.116-2.366 3.82-3.435 6.042-2.388 2.221 1.047 3.117 3.814 2.002 6.18s-3.82 3.435-6.041 2.388c-2.223-1.047-3.119-3.814-2.003-6.18z" style="fill:#407bff"/><path d="M339.066 411.708h1.37v10.102h-1.37z" style="fill:#263238" transform="rotate(-154.756 339.762 416.7504)"/></svg>