<svg width="182" height="182" viewBox="0 0 182 182" xmlns="http://www.w3.org/2000/svg" xml:space="preserve">

 <g>
 
  <path id="svg_2" fill-rule="evenodd" fill="#183d57" d="m179.63818,87.83746c-1.64529,-2.88486 -4.77055,-5.33267 -8.13313,-5.80612c-9.1451,-1.2749 -11.67571,-7.41808 -10.26374,-16.01467c0.89064,-5.43173 9.11444,-8.31646 9.08244,-13.89285c-0.044,-6.60717 -9.12111,-19.07619 -14.38764,-23.45341c-5.05587,-3.05859 -8.24779,-4.04923 -14.10898,-0.90531c-2.25994,1.2133 -2.5786,1.99995 -5.37853,2.74126c-4.89974,1.28263 -10.02055,-1.69062 -12.35742,-5.98518c-4.1051,-7.55714 2.553,-14.32231 -7.79514,-20.23549c-3.16139,-1.74129 -21.21974,-4.07456 -23.50195,-3.49725c-7.32115,1.84662 -7.18835,5.90919 -9.62069,11.67038c-0.95198,2.26261 -2.18008,4.10923 -4.00297,5.64653c-3.97497,3.36258 -9.83002,3.36925 -14.24698,0.94398l-4.09576,-4.02257c-0.13186,-0.15333 -0.22866,-0.28399 -0.34746,-0.41866c-3.04726,-2.45061 -4.22589,-3.53858 -8.57739,-3.84124c-0.96451,-0.06667 -2.16861,0.29733 -2.91659,0.43599c-5.96025,1.10797 -19.45578,13.58366 -21.10361,16.27159c-2.43794,6.29051 0.26039,9.49843 2.99886,14.7423c2.21461,8.80445 -2.34581,14.24498 -10.09601,16.30213c-6.64943,1.13331 -9.68629,-1.2645 -14.83456,4.31603c-3.39472,3.84524 -4.0635,15.32522 -4.97854,21.05894c-0.91251,4.13216 1.41303,9.07791 4.73841,11.52265c9.88002,4.73162 13.06901,1.45463 15.23922,12.33503c1.84995,10.61587 -6.67743,10.36174 -9.2415,18.27768c-0.44212,1.37183 -0.63692,4.66975 -0.27066,6.09105c2.13995,6.06238 12.0809,20.72762 18.65407,21.93532c1.31463,0.24373 4.07856,0.28026 5.45773,-0.20359l5.13574,-2.67447c3.21712,-1.96088 7.91074,-1.95568 11.14972,-0.1744c2.67967,1.47023 5.2588,3.73631 6.29211,6.7253c1.77022,5.16027 -1.19584,10.62947 3.35672,15.94547c0.02907,0.0328 0.1156,0.1276 0.1452,0.1588c5.14787,5.51973 24.17033,8.52219 30.01592,7.01396c2.39634,-0.61465 4.51095,-2.00568 6.10558,-3.85057c1.2281,-1.4201 2.39474,-3.47218 2.70207,-5.41946c1.75356,-11.14612 11.58358,-14.30911 20.41456,-7.19889c4.80255,3.81977 5.06347,6.31598 12.0133,5.316c7.23462,-1.03851 21.43026,-12.35582 23.38222,-19.04472c0.62265,-2.14061 0.28799,-4.70935 -0.49065,-6.77903c-0.56799,-1.51716 -1.58396,-2.68273 -2.39327,-4.03737c-3.29192,-5.48693 -1.57329,-14.16791 4.54655,-16.62625c7.22115,-2.89206 10.87973,0.48385 17.63023,-5.34667c4.14923,-3.65044 7.67981,-23.69887 4.08256,-30.02218zm-88.58005,65.73422c-34.61887,0 -62.68177,-28.06277 -62.68177,-62.68177c0,-34.61834 28.0629,-62.68083 62.68177,-62.68083c34.61847,0 62.6807,28.0625 62.6807,62.68083c0,34.619 -28.06223,62.68177 -62.6807,62.68177">
    <animateTransform 
      attributeName="transform" 
      type="rotate" 
      from="0 91 91" 
      to="360 91 91" 
      dur="3s" 
      repeatCount="indefinite"/>
  </path>
  <path id="svg_3" fill-rule="evenodd" fill="#17405f" d="m78.58764,87.67907l-0.01613,-0.05573l0.03173,0.00733c1.3865,-4.43589 5.42746,-7.50501 10.01388,-7.70967l0,-36.02323c-7.70981,-0.31066 -15.77107,2.08928 -22.83703,4.55829c-1.99528,0.99384 -1.27543,4.04737 2.15835,6.14211c6.47944,4.29003 14.28711,14.38297 17.79742,22.71557l-5.478,-8.33259c-7.9998,-5.10361 -23.15715,-10.18415 -24.97644,-8.75551c-9.3347,6.5165 -12.58462,18.91926 -14.65377,29.58313c-0.1464,2.22434 2.8546,3.14005 6.39411,1.22864c7.52328,-3.71137 21.67239,-5.3536 30.65497,-3.60364l-12.14143,1.13704c-8.25966,4.67068 -19.85577,15.67401 -19.44791,17.95102c1.37757,11.30078 10.80653,19.9891 19.25419,26.81813c1.89635,1.17237 4.1119,-1.04837 4.08376,-5.07014c0.23493,-7.83367 4.77641,-19.9271 10.06855,-27.28372l-4.26976,9.28203c-0.09213,9.48776 3.62498,25.03577 5.80039,25.82335c2.45047,1.04531 4.99788,1.63689 7.59261,1.88062l0,-36.02883a11.21145,-11.21145 0 0 0 -1.3313,-0.14266c-6.00145,-1.01251 -10.04708,-6.69877 -9.03471,-12.70075a11.21025,-11.21025 0 0 0 0.33652,-1.42076"/>
  <path id="svg_4" fill-rule="evenodd" fill="#657593" d="m82.18755,44.62041c2.54474,2.79726 4.67068,5.69292 6.42957,8.67725l0,-8.68658c-2.54274,-0.23866 -4.81401,-0.16666 -6.42957,0.00933m-36.53455,29.09701c14.7335,-3.22645 27.81704,0.00947 39.61674,6.73477a10.97919,-10.97919 0 0 0 0.94478,-0.32399c-1.63596,-3.09206 -4.91348,-8.94924 -6.44251,-9.82522c-7.81447,-4.47802 -20.85948,-10.12161 -24.63432,-8.73058c-4.91494,3.65098 -8.11486,9.02897 -9.4847,12.14503m8.93578,48.33106c3.53005,-14.97816 12.2013,-25.3743 23.69941,-33.15491c0.0328,-0.1848 0.1052,-0.48799 0.14733,-0.66918c-3.21859,0.10733 -10.62467,0.51199 -12.1757,1.58169c-7.41648,5.11134 -18.14488,14.43404 -18.52194,18.44021c1.16717,6.00972 4.63375,11.21999 6.8509,13.80219m34.02835,2.5594c-4.39002,-7.99207 -6.37224,-16.30693 -6.79316,-25.4119c-0.0724,-0.06773 -0.31813,-0.29159 -0.38906,-0.36092c-1.46183,2.59474 -5.1436,9.45283 -5.02427,11.40705c0.54839,8.98978 2.99419,22.99156 6.22998,25.38323c1.97915,0.72332 4.0171,1.16557 5.97652,1.40983l0,-12.42729"/>
  <path id="svg_5" fill-rule="evenodd" fill="#8db6d6" d="m92.0185,80.31418c11.73931,0 14.54764,16.86878 3.77604,20.55055c-1.5157,0.51812 -3.04166,0.72438 -4.49949,0.66185l0,36.56789c7.27275,0.12453 5.79519,0.13746 5.79519,-5.89572c1.86769,0.43439 3.8359,2.02915 5.59519,2.98699c1.58329,0.86238 4.0327,2.7238 5.71759,2.86446l4.68162,-8.58205l-11.9273,-6.79823c-1.10304,-0.65318 -2.95713,-1.87809 -4.0671,-2.17448c0,-2.7822 0.59999,-7.29875 -0.39052,-9.36283c2.09101,-0.48692 3.8207,-1.2317 5.59093,-2.21141c1.81555,-1.00611 2.98433,-2.19995 4.55255,-3.25032c1.14477,0.26706 2.96859,1.43583 4.12643,2.11555c1.00984,0.59319 3.67537,1.78476 3.67537,2.95619l0,17.94475l10.14255,0l0,-12.87301c1.83475,0.97024 3.62751,2.14995 5.46186,3.12019c1.04424,-1.97342 4.30056,-7.33835 4.68055,-8.97218c-1.2413,-0.65732 -4.36816,-2.16141 -5.07067,-3.12126l5.332,-2.8598c1.80529,-0.96038 3.65724,-2.5406 5.59053,-2.99113c-0.14666,-1.77862 -1.25864,-3.08846 -2.11995,-4.51189c-0.92398,-1.52343 -1.79062,-3.00512 -2.55994,-4.46136c-2.27328,0.52972 -14.96483,8.97324 -16.38559,8.97324c-0.80531,0 -6.90663,-3.69204 -7.80194,-4.29149c1.54676,-6.64157 0.41306,-6.74103 0,-11.70344c1.24944,-0.29053 6.6149,-3.49578 7.80194,-4.29149l16.38559,9.3627c0.91464,-1.72902 4.56255,-7.55034 4.67988,-8.97218c-2.35994,-0.63065 -8.43619,-5.27227 -10.92253,-5.85185c0.66718,-0.90984 3.81737,-2.78593 5.07067,-3.12032c-0.12933,-1.55876 -3.73684,-7.18929 -4.68055,-8.97258c-1.99635,0.53279 -3.14525,2.19101 -5.46186,2.7306l0,-12.48355l-10.14255,0l0,17.94489c0,1.15824 -0.63585,1.08544 -1.51503,1.60623l-6.28678,3.46498c-3.30938,-2.21554 -4.16763,-4.15976 -9.75296,-5.46133l0,-9.3623c1.82129,-0.96398 14.6059,-8.64872 15.9944,-8.97258c-0.48385,-2.07715 -4.19936,-6.90409 -4.68162,-8.97338l-8.50552,4.75775c-1.06824,0.65265 -1.88849,1.1797 -3.19779,1.4849c0.27759,-0.57759 1.4457,-5.85199 -0.77971,-5.85199l-4.62495,0l0,36.30283c0.23813,-0.0136 0.47812,-0.0224 0.72345,-0.0224"/>
 </g>

</svg>