<svg xmlns="http://www.w3.org/2000/svg" xml:space="preserve" width="575" height="182" viewBox="0 0 575 182">
  <path d="M1795.88 130.355h-150.74V1089.6h475.51V130.355h-153.47V952.57h-171.3zm571.45 220.625c0-34.714 7.07-59.148 21.23-73.312 14.17-14.168 33.13-21.238 56.87-21.238 23.77 0 42.72 7.07 56.87 21.238 14.17 14.164 21.25 38.598 21.25 73.312v517.997c0 34.711-7.08 59.148-21.25 73.312-14.15 14.164-33.1 21.234-56.87 21.234-23.74 0-42.7-7.07-56.87-21.234-14.16-14.164-21.23-38.601-21.23-73.312zm-150.74 508.399c0 77.656 19.64 137.266 58.92 178.831 39.29 41.58 95.92 62.36 169.92 62.36 74 0 130.65-20.78 169.93-62.36 39.28-41.565 58.92-101.175 58.92-178.831V360.574c0-77.648-19.64-137.261-58.92-178.828-39.28-41.578-95.93-62.359-169.93-62.359s-130.63 20.781-169.92 62.359c-39.28 41.567-58.92 101.18-58.92 178.828zm512.5 230.221h465.93V952.57h-157.59V130.355h-150.75V952.57h-157.59zm671.48-738.62c0-34.714 7.07-59.148 21.24-73.312 14.17-14.168 33.12-21.238 56.87-21.238 23.76 0 42.71 7.07 56.87 21.238 14.16 14.164 21.25 38.598 21.25 73.312v517.997c0 34.711-7.09 59.148-21.25 73.312-14.16 14.164-33.11 21.234-56.87 21.234-23.75 0-42.7-7.07-56.87-21.234-14.17-14.164-21.24-38.601-21.24-73.312zm-150.74 508.399c0 77.656 19.65 137.266 58.93 178.831 39.28 41.58 95.92 62.36 169.92 62.36 74 0 130.65-20.78 169.92-62.36 39.29-41.565 58.93-101.175 58.93-178.831V360.574c0-77.648-19.64-137.261-58.93-178.828-39.27-41.578-95.92-62.359-169.92-62.359-74 0-130.64 20.781-169.92 62.359-39.28 41.567-58.93 101.18-58.93 178.828zm750.95-346.699-46.59-87.7V130.355h-150.74V1089.6h150.74V671.645l200.08 417.955h148L4092.6 662.051l209.67-531.696h-154.86L4000.78 512.68" style="fill:#183d57;fill-opacity:1;fill-rule:nonzero;stroke:none" transform="matrix(.13333 0 0 -.13333 0 181.333)"/>
  <g>
  <path d="M1347.32 705.996c-12.34 21.637-35.78 39.996-61 43.547-68.59 9.562-87.57 55.637-76.98 120.113 6.68 40.739 68.36 62.375 68.12 104.199-.33 49.555-68.41 143.075-107.91 175.905-37.92 22.94-61.86 30.37-105.82 6.79-16.95-9.1-19.34-15-40.34-20.56-36.749-9.62-75.156 12.68-92.683 44.89-30.789 56.68 19.148 107.42-58.465 151.77-23.711 13.06-159.152 30.56-176.269 26.23-54.91-13.85-53.914-44.32-72.157-87.53-7.14-16.97-16.351-30.82-30.023-42.35-29.813-25.22-73.727-25.27-106.855-7.08l-30.719 30.17c-.989 1.15-1.715 2.13-2.606 3.14-22.855 18.38-31.695 26.54-64.332 28.81-7.234.5-16.265-2.23-21.875-3.27-44.703-8.31-145.922-101.88-158.281-122.04-18.285-47.18 1.953-71.24 22.492-110.57 16.61-66.035-17.594-106.84-75.722-122.269-49.872-8.5-72.649 9.484-111.262-32.371-25.461-28.84-30.477-114.942-37.34-157.946-6.844-30.992 10.598-68.086 35.539-86.422 74.102-35.488 98.02-10.91 114.297-92.515 13.875-79.621-50.082-77.715-69.313-137.086-3.316-10.289-4.777-35.024-2.03-45.684 16.05-45.469 90.609-155.461 139.909-164.519 9.86-1.828 30.59-2.102 40.934 1.527l38.519 20.059c24.129 14.707 59.332 14.668 83.625 1.308 20.098-11.027 39.442-28.023 47.192-50.441 13.277-38.703-8.969-79.723 25.176-119.594.218-.246.867-.957 1.089-1.191C500.84 19.617 643.512-2.902 687.355 8.41c17.973 4.61 33.833 15.043 45.793 28.88 9.211 10.651 17.961 26.042 20.266 40.647 13.152 83.598 86.879 107.321 153.113 53.993 36.02-28.649 37.977-47.371 90.102-39.871C1050.89 99.848 1157.36 184.73 1172 234.898c4.67 16.055 2.16 35.321-3.68 50.844-4.26 11.379-11.88 20.121-17.95 30.281-24.69 41.153-11.8 106.262 34.1 124.7 54.16 21.691 81.6-3.629 132.23 40.101 31.12 27.379 57.6 177.746 30.62 225.172zM682.953 212.977c-259.648 0-470.125 210.476-470.125 470.125 0 259.644 210.477 470.118 470.125 470.118 259.645 0 470.117-210.474 470.117-470.118 0-259.649-210.472-470.125-470.117-470.125" style="fill:#183d57;fill-opacity:1;fill-rule:evenodd;stroke:none" transform="matrix(.13333 0 0 -.13333 0 181.333)"/>
  <animateTransform 
      attributeName="transform" 
      type="rotate" 
      from="0 91 91" 
      to="360 91 91" 
      dur="6s" 
      repeatCount="indefinite"/>
  </g>
  <path d="m589.422 702.422-.121.418.238-.055c10.399 33.27 40.707 56.289 75.106 57.824v270.181c-57.825 2.33-118.286-15.67-171.282-34.188-14.965-7.454-9.566-30.356 16.188-46.067 48.597-32.176 107.156-107.875 133.484-170.371l-41.086 62.496c-60 38.278-173.683 76.383-187.328 65.668-70.012-48.875-94.387-141.898-109.906-221.879-1.098-16.683 21.41-23.551 47.957-9.215 56.426 27.836 162.547 40.153 229.918 27.028l-91.063-8.528c-61.949-35.031-148.922-117.558-145.863-134.636 10.332-84.758 81.051-149.922 144.41-201.141 14.223-8.793 30.84 7.863 30.629 38.027 1.762 58.754 35.824 149.457 75.516 204.633L564.195 533c-.691-71.16 27.188-187.773 43.504-193.68 18.379-7.84 37.485-12.277 56.946-14.105v270.223a84.088 84.088 0 0 0-9.985 1.07c-45.012 7.594-75.355 50.242-67.762 95.258a84.079 84.079 0 0 0 2.524 10.656" style="fill:#17405f;fill-opacity:1;fill-rule:evenodd;stroke:none" transform="matrix(.13333 0 0 -.13333 0 181.333)"/>
  <path d="M616.422 1025.37c19.086-20.98 35.031-42.698 48.223-65.081v65.151c-19.071 1.79-36.106 1.25-48.223-.07M342.406 807.137c110.504 24.199 208.633-.071 297.133-50.512a82.346 82.346 0 0 0 7.086 2.43c-12.27 23.191-36.852 67.121-48.32 73.691-58.61 33.586-156.45 75.914-184.762 65.481-36.863-27.383-60.863-67.719-71.137-91.09M409.426 444.645c26.476 112.339 91.512 190.312 177.75 248.668.246 1.386.789 3.66 1.105 5.019-24.14-.805-79.687-3.84-91.32-11.863-55.625-38.336-136.09-108.258-138.918-138.305 8.754-45.074 34.754-84.152 51.383-103.519M664.645 425.449c-32.926 59.942-47.793 122.305-50.95 190.594-.543.508-2.386 2.187-2.918 2.707-10.964-19.461-38.578-70.898-37.683-85.555 4.113-67.425 22.457-172.441 46.726-190.379 14.844-5.425 30.129-8.742 44.825-10.574v93.207" style="fill:#657593;fill-opacity:1;fill-rule:evenodd;stroke:none" transform="matrix(.13333 0 0 -.13333 0 181.333)"/>
  <path d="M690.156 757.66c88.047 0 109.11-126.519 28.321-154.133-11.368-3.886-22.813-5.433-33.747-4.964V324.297c54.547-.934 43.465-1.031 43.465 44.219 14.008-3.258 28.77-15.219 41.965-22.403 11.875-6.468 30.246-20.429 42.883-21.484l35.113 64.367-89.457 50.988c-8.273 4.899-22.179 14.086-30.504 16.309 0 20.867 4.5 54.742-2.929 70.223 15.683 3.652 28.656 9.238 41.933 16.586 13.617 7.546 22.383 16.5 34.145 24.378 8.586-2.003 22.265-10.769 30.949-15.867 7.574-4.449 27.566-13.386 27.566-22.172V394.852h76.071v96.55c13.761-7.277 27.207-16.125 40.965-23.402 7.832 14.801 32.255 55.039 35.105 67.293-9.31 4.93-32.762 16.211-38.031 23.41l39.991 21.449c13.54 7.203 27.43 19.055 41.93 22.434-1.1 13.34-9.44 23.164-15.9 33.84-6.93 11.426-13.43 22.539-19.2 33.461-17.05-3.973-112.239-67.301-122.895-67.301-6.04 0-51.801 27.691-58.516 32.187 11.601 49.813 3.098 50.559 0 87.778 9.371 2.179 49.613 26.219 58.516 32.187l122.895-70.222c6.86 12.968 34.22 56.629 35.1 67.293-17.7 4.73-63.273 39.543-81.921 43.89 5.004 6.824 28.631 20.895 38.031 23.403-.97 11.691-28.027 53.921-35.105 67.296-14.973-3.996-23.59-16.433-40.965-20.48v93.629h-76.071v-134.59c0-8.687-4.769-8.141-11.363-12.047l-47.152-25.988c-24.821 16.617-31.258 31.199-73.149 40.961v70.219c13.66 7.23 109.547 64.867 119.961 67.296-3.629 15.579-31.496 51.782-35.113 67.302l-63.793-35.684c-8.012-4.895-14.164-8.848-23.984-11.137 2.082 4.332 10.843 43.891-5.848 43.891H684.73V757.492c1.786.102 3.586.168 5.426.168" style="fill:#8db6d6;fill-opacity:1;fill-rule:evenodd;stroke:none" transform="matrix(.13333 0 0 -.13333 0 181.333)"/>
</svg>