<svg width="100" height="40" viewBox="0 0 100 40" fill="none" xmlns="http://www.w3.org/2000/svg">
<g clip-path="url(#clip0_679_149)">
<path d="M19.69 0.000195313V40.0002H16.4V37.5002C16.4 36.1302 16.4 35.0002 16.39 35.0002C16.38 35.0002 15.53 35.4902 14.49 36.1002C13.45 36.7002 12.6 37.1902 12.59 37.1802C12.56 37.1502 10.7 33.8902 10.7 33.8702C10.7 33.8502 11.98 33.0902 13.54 32.1902L16.39 30.5402V26.9602L16.41 23.3802L13.98 24.7902C12.64 25.5702 11.25 26.3702 10.9 26.5802L10.25 26.9502V33.4702H8.33L6.41 33.4502L6.39 31.3202L6.37 29.1902L4.2 30.4502C3 31.1402 2.02 31.7102 2.01 31.7002C2.01 31.7002 1.57 30.9402 1.05 30.0302C0.29 28.7102 0.11 28.3702 0.14 28.3402C0.16 28.3202 1.13 27.7602 2.29 27.0902C3.45 26.4202 4.39 25.8602 4.39 25.8502C4.39 25.8402 3.54 25.3402 2.51 24.7402C1.09 23.9202 0.63 23.6402 0.64 23.6002C0.66 23.5602 2.08 21.0702 2.42 20.4902C2.47 20.4102 2.52 20.3302 2.54 20.3202C2.56 20.3202 3.84 21.0502 5.4 21.9502C7.01 22.8802 8.25 23.5902 8.29 23.5802C8.34 23.5602 14.38 20.0702 14.42 20.0302C14.44 20.0102 12.12 18.6602 8.37 16.4902L8.23 16.4102L5.43 18.0302C3.29 19.2702 2.62 19.6402 2.6 19.6102C2.53 19.5402 0.74 16.3902 0.74 16.3402C0.74 16.3002 1.25 15.9902 2.55 15.2402C3.55 14.6702 4.36 14.1802 4.36 14.1702C4.36 14.1702 3.38 13.5902 2.18 12.8902L0 11.6302L0.05 11.5302C0.08 11.4702 0.51 10.7202 1.01 9.8602C1.69 8.6802 1.93 8.3002 1.96 8.3102C1.98 8.3202 2.94 8.8702 4.08 9.5302C5.22 10.1902 6.17 10.7402 6.21 10.7502C6.26 10.7702 6.26 10.6502 6.26 8.5702V6.3602H10.09V9.6902L10.11 13.0202L13.18 14.8002C14.87 15.7802 16.28 16.6002 16.33 16.6302L16.41 16.6802V9.3502L13.55 7.7002C11.98 6.7902 10.7 6.0402 10.7 6.0302C10.77 5.8802 12.6 2.7102 12.62 2.7102C12.62 2.7102 13.49 3.2002 14.52 3.8002L16.4 4.8902V2.4202L16.42 -0.0498047H19.71L19.69 0.000195313Z" fill="#2A4D6C"/>
<path d="M30.0604 18.6299C28.6404 18.6299 27.4804 18.2299 26.5604 17.4299C25.6504 16.6299 25.1904 15.5399 25.1904 14.1399V14.0099C25.1904 12.6199 25.6504 11.4999 26.5704 10.6699C27.4904 9.83992 28.6604 9.41992 30.0804 9.41992C31.5004 9.41992 32.6504 9.82992 33.5604 10.6399C34.4704 11.4499 34.9304 12.5499 34.9304 13.9199V14.0499C34.9304 15.4599 34.4704 16.5699 33.5504 17.3899C32.6304 18.2099 31.4704 18.6199 30.0604 18.6199V18.6299ZM30.0804 16.1999C31.0804 16.1999 31.5904 15.4899 31.5904 14.0699V13.9499C31.5904 12.5399 31.0904 11.8399 30.0804 11.8399C29.0704 11.8399 28.5204 12.5299 28.5204 13.8999V14.0299C28.5204 15.4699 29.0404 16.1899 30.0804 16.1899V16.1999Z" fill="#2A4D6C"/>
<path d="M43.4209 11.9502H41.0309V18.4102H37.7709V11.9502H35.3809V9.66016H43.4309V11.9502H43.4209Z" fill="#2A4D6C"/>
<path d="M54.7402 30.8896C50.7002 30.8896 48.6002 29.0896 48.4502 25.4896H52.5702C52.6202 26.1296 52.8002 26.6196 53.0802 26.9396C53.3702 27.2696 53.8202 27.4296 54.4502 27.4296C55.5602 27.4296 56.1102 26.9196 56.1102 25.8896C56.1102 24.8596 55.5402 24.3296 54.3902 24.3296H53.2202V21.3996H54.3302C55.5202 21.3996 56.1102 20.8896 56.1102 19.8596C56.1102 19.4496 55.9802 19.1196 55.7302 18.8896C55.4802 18.6596 55.1102 18.5396 54.6302 18.5396C53.6502 18.5396 53.0702 19.1396 52.9102 20.3296H48.8102C48.9302 18.7096 49.4902 17.4296 50.4802 16.4996C51.4702 15.5696 52.8902 15.0996 54.7502 15.0996C56.6102 15.0996 57.9402 15.4696 58.9402 16.2196C59.9402 16.9696 60.4502 17.9996 60.4502 19.3296C60.4502 20.9996 59.6102 22.0896 57.9302 22.6196C58.8002 22.7796 59.5002 23.1596 60.0202 23.7596C60.5402 24.3696 60.8002 25.1196 60.8002 26.0096C60.8002 27.5096 60.2802 28.6896 59.2302 29.5696C58.1902 30.4496 56.6902 30.8796 54.7302 30.8796L54.7402 30.8896Z" fill="#2A4D6C"/>
<path d="M80.0504 22.5796C79.0404 22.5796 78.1703 22.2096 77.4503 21.4796C76.7303 20.7496 76.3604 19.8796 76.3604 18.8796C76.3604 17.8796 76.7204 16.9796 77.4404 16.2396C78.1604 15.5096 79.0304 15.1396 80.0504 15.1396C81.0704 15.1396 81.9004 15.5096 82.6104 16.2396C83.3204 16.9696 83.6804 17.8496 83.6804 18.8796C83.6804 19.9096 83.3203 20.7396 82.6003 21.4796C81.8803 22.2096 81.0304 22.5796 80.0504 22.5796ZM80.0504 21.0396C80.5804 21.0396 81.0204 20.8296 81.3704 20.4196C81.7204 20.0096 81.8904 19.4896 81.8904 18.8796C81.8904 18.2696 81.7203 17.7096 81.3803 17.2996C81.0403 16.8896 80.5904 16.6796 80.0504 16.6796C79.4804 16.6796 79.0203 16.8896 78.6703 17.2996C78.3203 17.7096 78.1504 18.2396 78.1504 18.8796C78.1504 19.5196 78.3304 20.0096 78.6804 20.4196C79.0304 20.8296 79.4904 21.0396 80.0504 21.0396Z" fill="#2A4D6C"/>
<path d="M93.0595 30.8896C90.4795 30.8896 88.5395 30.1896 87.2295 28.7996C85.9295 27.3996 85.2695 25.4996 85.2695 23.0696V22.8996C85.2695 20.5596 85.9795 18.6796 87.4095 17.2496C88.8395 15.8196 90.6495 15.0996 92.8495 15.0996C94.8795 15.0996 96.5095 15.5996 97.7395 16.6096C98.9595 17.6096 99.6495 19.1196 99.8195 21.1296H95.0295C94.8795 19.6596 94.1595 18.9296 92.8795 18.9296C92.0195 18.9296 91.3495 19.2696 90.8795 19.9396C90.4095 20.6196 90.1695 21.5996 90.1695 22.8796V23.0496C90.1695 24.3296 90.4095 25.3096 90.8895 25.9896C91.3695 26.6696 92.0595 26.9996 92.9595 26.9996C94.4095 26.9996 95.2095 26.2496 95.3795 24.7596H100.01C99.8695 26.7296 99.1795 28.2396 97.9295 29.2996C96.6795 30.3596 95.0595 30.8896 93.0695 30.8896H93.0595Z" fill="#2A4D6C"/>
<path d="M24.5498 21.0902V26.2402H45.5398V21.0902H24.5498Z" fill="#2A4D6C"/>
<path d="M68.1799 30.89C65.9899 30.89 64.2799 30.22 63.0599 28.89C61.7999 27.54 61.1699 25.67 61.1699 23.28V22.63C61.1699 20.26 61.8399 18.39 63.1899 17.02C64.4799 15.7 66.1699 15.04 68.2699 15.04C70.3699 15.04 72.0299 15.66 73.3499 16.91C74.6999 18.26 75.3699 20.14 75.3699 22.55V23.15C75.3699 25.57 74.7299 27.47 73.4299 28.85C72.1099 30.21 70.3599 30.89 68.1799 30.89ZM68.3099 27.47C69.2399 27.47 69.9199 27.13 70.3299 26.44C70.7399 25.75 70.9499 24.68 70.9499 23.23V22.61C70.9499 21.18 70.7299 20.11 70.2999 19.42C69.8699 18.72 69.1899 18.38 68.2599 18.38C67.3299 18.38 66.6499 18.72 66.2199 19.41C65.7899 20.1 65.5799 21.17 65.5799 22.61V23.26C65.5799 24.69 65.7999 25.76 66.2399 26.44C66.6799 27.13 67.3699 27.47 68.3199 27.47H68.3099Z" fill="#2A4D6C"/>
</g>
<defs>
<clipPath id="clip0_679_149">
<rect width="100" height="40" fill="white"/>
</clipPath>
</defs>
</svg>
