<svg width="35" height="45" viewBox="0 0 35 45" fill="none" xmlns="http://www.w3.org/2000/svg">
<path d="M34.0625 5.26755L17.8125 0.0715053C17.5893 -0.0238351 17.3214 -0.0238351 17.0982 0.0715053L0.848214 5.26755C0.357143 5.45823 0 5.93494 0 6.50698V25.575C0 28.0539 0.9375 30.5804 2.8125 33.1069C4.24107 35.0614 6.20536 36.9682 8.66071 38.875C12.7679 42.0689 16.8304 44.0234 17.0089 44.0711C17.1875 44.1664 17.3214 44.1664 17.5 44.1664C17.6786 44.1664 17.8571 44.1187 17.9911 44.0711C18.1696 43.9757 22.2321 42.0213 26.3393 38.875C28.7946 36.9682 30.7589 35.0614 32.1875 33.1069C34.0625 30.5804 35 28.0539 35 25.575V6.50698C34.9107 5.93494 34.5536 5.45823 34.0625 5.26755Z" fill="#2A4C6B"/>
<path d="M23.1727 31.2744H17.0047V26.4759H7V21.9492L16.7224 10H23.1622V21.5519H25.9326V26.4759H23.1622V31.2744H23.1727ZM16.9942 17.1089L13.2203 21.5415H16.9942V17.1089Z" fill="white"/>
</svg>
