<svg width="105" height="31" viewBox="0 0 105 31" fill="none" xmlns="http://www.w3.org/2000/svg">
<path d="M8.92743 30.1667H0L11.6249 0H19.9101L31.535 30.1667H22.2222L20.2312 24.5701H10.9827L8.92743 30.1667ZM15.607 10.5106L13.4875 17.6768H17.6622L15.607 10.5106Z" fill="#2A4C6B"/>
<path d="M33.1406 19.6559V11.8071H40.334V4.16309H47.72V11.8071H54.8491V19.6559H47.72V27.2999H40.334V19.6559H33.1406Z" fill="#2A4C6B"/>
<path d="M58.0605 19.6559V11.8071H65.2539V4.16309H72.6399V11.8071H79.769V19.6559H72.6399V27.2999H65.2539V19.6559H58.0605Z" fill="#2A4C6B"/>
<path d="M83 19.6559V11.8071H90.1933V4.16309H97.5794V11.8071H104.708V19.6559H97.5794V27.2999H90.1933V19.6559H83Z" fill="#2A4C6B"/>
</svg>
