<svg width="74" height="29" viewBox="0 0 74 29" fill="none" xmlns="http://www.w3.org/2000/svg">
<path d="M21.0662 28.2556H0V0H20.8093V7.43929H8.15672V9.96455H18.1118V16.7896H8.15672V20.7481H21.0662V28.2556Z" fill="#2A4C6B"/>
<path d="M42.0685 17.1991L49.9683 28.2556H40.4628L33.398 18.1546H32.2419V28.2556H24.1494V0H36.9946C40.0132 0 42.4538 0.887255 44.2521 2.59351C46.0505 4.29977 47.0139 6.48378 47.0139 9.0773C47.0139 10.8518 46.5643 12.4216 45.7293 13.8548C44.766 15.2881 43.6099 16.3801 42.0685 17.1991ZM32.3061 11.8073H36.0312C36.8019 11.8073 37.38 11.6026 37.8938 11.1931C38.3434 10.7836 38.6003 10.2376 38.6003 9.4868C38.6003 8.8043 38.3434 8.25829 37.8938 7.84879C37.4442 7.43929 36.8019 7.23454 36.0312 7.23454H32.3061V11.8073Z" fill="#2A4C6B"/>
<path d="M51.6377 0H63.8407C66.9235 0 69.2999 0.887255 71.0983 2.59351C72.9608 4.29977 73.86 6.55203 73.86 9.2138C73.86 11.8756 72.9608 14.1278 71.0983 15.8341C69.2999 17.5403 66.8593 18.4276 63.8407 18.4276H59.7944V28.2556H51.6377V0ZM59.7944 12.0803H62.7488C63.5838 12.0803 64.2903 11.8756 64.8041 11.3978C65.3179 10.9201 65.5748 10.3058 65.5748 9.55505C65.5748 8.8043 65.3179 8.19004 64.8041 7.71229C64.2903 7.23454 63.5838 7.02979 62.8131 7.02979H59.8587V12.0803H59.7944Z" fill="#2A4C6B"/>
</svg>
